<svg xmlns="http://www.w3.org/2000/svg" width="48" height="48" class="icon" viewBox="0 0 1024 1024"><path fill="#272636" d="M869.006 880.668H165.671c-3.467-.643-6.93-1.358-10.417-1.92-42.908-6.863-79.711-40.743-90.024-82.941-.99-4.06-1.698-8.189-2.534-12.29V243.39c.455-2.176.9-4.353 1.368-6.522 9.824-45.261 37.55-74.274 80.996-88.787 6.654-2.223 13.729-3.2 20.61-4.752h242.865c3.99 2.606 8.575 4.607 11.865 7.905 31.888 31.97 63.582 64.124 95.227 96.342 2.935 2.99 5.862 4.3 10.12 4.292 105.525-.12 211.046-.111 316.57-.042 6.932.009 13.92.319 20.793 1.217 45.231 5.96 84.712 41.615 95.398 85.936 1.053 4.371 1.868 8.802 2.794 13.202v433.275c-.639 3.283-1.239 6.578-1.916 9.846-8.583 41.29-32.05 69.31-73.014 81.558-5.664 1.698-11.577 2.565-17.366 3.807m-352.39-43.542h337.07c2.588 0 5.182-.005 7.775-.078 11.299-.295 21.698-3.587 30.825-10.192 18.267-13.23 25.568-31.783 25.568-53.806-.022-136.48.012-272.952-.095-409.435-.004-5.431-.532-11.05-1.938-16.281-8.158-30.495-37.552-52.245-70.284-52.25-110.417-.031-220.833-.064-331.24.09-8.712.013-15.503-2.716-21.579-8.916-31.62-32.253-63.402-64.346-95.252-96.366-1.603-1.607-4.384-2.889-6.614-2.893-71.395-.15-142.794.197-214.188-.262-35.033-.221-71.06 31.486-70.862 71.173.84 170.477.355 340.953.355 511.429 0 1.462.019 2.914 0 4.37-.11 14.577 4.98 27.26 14.427 38.132 15.152 17.408 34.499 25.341 57.498 25.327 112.841-.09 225.69-.042 338.535-.042m0 0"/></svg>