<?xml version="1.0" standalone="no"?><!DOCTYPE svg PUBLIC "-//W3C//DTD SVG 1.1//EN" "http://www.w3.org/Graphics/SVG/1.1/DTD/svg11.dtd"><svg t="1733474270630" class="icon" viewBox="0 0 1024 1024" version="1.1" xmlns="http://www.w3.org/2000/svg" p-id="6021" xmlns:xlink="http://www.w3.org/1999/xlink" width="48" height="48"><path d="M337.92 348.822588Q435.079529 251.843765 572.235294 251.843765h155.888941q3.011765 0 5.903059-0.602353t5.662118-1.746824q2.710588-1.084235 5.180235-2.770823 2.469647-1.626353 4.577882-3.734589 2.108235-2.108235 3.734589-4.577882 1.626353-2.409412 2.770823-5.180235 1.204706-2.770824 1.746824-5.662118 0.602353-2.891294 0.602353-5.903059 0-2.951529-0.602353-5.842823t-1.746824-5.662118q-1.144471-2.710588-2.770823-5.180235-1.626353-2.469647-3.734589-4.577882-2.108235-2.108235-4.577882-3.734589-2.409412-1.686588-5.180235-2.831059-2.770824-1.084235-5.662118-1.686588-2.891294-0.602353-5.903059-0.602353H572.235294q-162.153412 0-276.841412 114.688T180.705882 583.077647v155.949177q0 2.951529 0.602353 5.842823 0.602353 2.951529 1.686589 5.662118 1.144471 2.770824 2.770823 5.180235 1.686588 2.469647 3.734588 4.577882 2.108235 2.108235 4.577883 3.734589 2.469647 1.686588 5.24047 2.831058 2.710588 1.084235 5.601883 1.686589 2.951529 0.602353 5.903058 0.602353 3.011765 0 5.903059-0.602353t5.601883-1.686589q2.770824-1.204706 5.24047-2.831058 2.409412-1.626353 4.577883-3.734589 2.048-2.108235 3.734588-4.577882 1.626353-2.409412 2.770823-5.180235 1.144471-2.710588 1.686589-5.662118 0.602353-2.891294 0.602352-5.842823V583.077647q0-137.216 96.978824-234.255059z" fill="#868E96" p-id="6022"></path></svg>